PathFileType	3	(X/Y/Z)	D:\minhoCalibration\240510\subject1_KPNP\preferred\preferred07.trc
DataRate	CameraRate	NumFrames	NumMarkers	Units	OrigDataRate	OrigDataStartFrame	OrigNumFrames
200.0	200.0	30	10	mm	200.0	522	252	
Frame#	Time	Left_Ankle_Outer1			Left_Ankle_Inner1			Left_Knee_Outer1			Left_Knee_Inner1			Left_Wrist1			Right_Wrist1			Right_Knee_Inner1			Right_Knee_Outer1			Right_Ankle_Inner1			Right_Ankle_Outer1			
		X1	Y1	Z1	X2	Y2	Z2	X3	Y3	Z3	X4	Y4	Z4	X5	Y5	Z5	X6	Y6	Z6	X7	Y7	Z7	X8	Y8	Z8	X9	Y9	Z9	X10	Y10	Z10	
522	2.6	-509.61835	128.72224	-571.50244	-555.59912	139.10228	-539.64691	-341.40695	519.8783	-396.27866	-447.58856	501.47284	-364.40503	-339.16806	975.72705	-550.45392	-666.04852	1047.373	-425.22601	-492.62296	669.23663	-151.27623	-604.8476	701.4812	-134.08836	-654.09406	262.44614	-247.36391	-745.57245	264.4187	-187.18625
523	2.605	-509.4856	128.41138	-571.53387	-555.62122	138.76994	-539.73486	-341.23828	518.65118	-394.35995	-447.52164	500.90546	-362.90054	-338.23077	974.62756	-548.67322	-666.63861	1044.2035	-426.3743	-497.22653	658.21997	-160.21198	-608.9632	690.36993	-142.02493	-658.05951	255.10207	-263.52444	-750.10358	253.34373	-206.00664
524	2.61	-509.63831	128.01268	-571.52545	-555.39996	137.94283	-539.27368	-340.89072	517.54138	-392.61621	-447.8197	499.72787	-362.03827	-337.5174	973.53046	-546.79388	-666.81659	1041.0774	-428.66815	-501.88971	647.73358	-169.71442	-613.15814	679.7616	-149.9324	-662.31964	246.2811	-280.61282	-753.03699	244.82831	-220.65675
525	2.615	-509.90164	127.59318	-571.52209	-555.88452	137.79803	-539.46118	-340.4646	516.48065	-391.00894	-447.76175	498.97528	-361.10324	-336.63531	972.52545	-545.06689	-668.5752	1038.915	-427.54871	-506.6235	637.7782	-179.21773	-617.41022	669.39337	-158.44151	-666.4931	237.60828	-297.04785	-756.75006	235.25638	-236.53676
526	2.62	-510.19073	127.24225	-571.53424	-556.22546	137.3607	-539.45337	-340.26822	515.45691	-389.63116	-447.9805	498.09619	-360.30151	-335.87561	971.62268	-543.242	-669.32397	1036.1267	-429.02115	-511.38019	628.24622	-188.80621	-621.8302	659.362	-167.46553	-668.28693	230.56564	-311.51962	-759.67316	225.81204	-252.56639
527	2.625	-510.73843	126.45676	-571.20673	-556.47638	136.67094	-539.22083	-340.47452	514.30975	-388.39563	-448.27438	497.30908	-359.34827	-335.18161	970.73438	-541.41382	-670.29736	1033.1732	-430.38983	-516.24652	619.38385	-197.88634	-626.40497	649.60022	-177.18628	-671.39673	221.34612	-326.72397	-762.72125	216.55344	-268.05597
528	2.63	-510.97876	126.15344	-571.55945	-557.02209	136.47383	-539.53534	-340.43384	513.19812	-387.44644	-448.28839	496.42285	-358.84854	-334.41708	969.83496	-539.69635	-670.86011	1030.8204	-431.5383	-521.18506	610.55298	-207.06911	-631.19006	640.38428	-187.3239	-673.66809	213.06857	-340.69757	-765.9762	207.41763	-282.92157
529	2.635	-511.29056	125.67389	-571.63483	-557.41089	135.92973	-539.65344	-340.50165	512.18408	-386.52722	-448.84656	495.12305	-358.43878	-334.02496	968.96625	-537.7771	-671.20239	1028.2891	-434.21265	-526.21924	601.9826	-216.53056	-636.08038	631.48395	-198.06696	-675.80591	204.9279	-354.16907	-768.37439	198.82187	-296.53375
530	2.64	-511.63577	125.03072	-571.78711	-557.90009	135.32275	-539.79065	-340.64145	511.24954	-385.83304	-448.78421	494.54309	-357.99945	-333.53873	968.21167	-536.06134	-672.45691	1025.4333	-436.22092	-531.26227	593.7179	-226.02856	-640.79047	623.0661	-209.5013	-677.69879	196.85854	-365.8858	-771.54706	189.98682	-311.92001
531	2.645	-511.93256	124.46284	-571.94153	-558.02264	134.67612	-539.96405	-340.85693	510.27869	-385.30353	-449.14828	493.58105	-357.63873	-333.23926	967.43146	-534.32965	-672.84882	1022.0299	-437.35315	-536.22742	586.01825	-234.99185	-645.77948	615.0459	-220.73279	-679.02997	188.81393	-381.31314	-775.62054	180.88658	-328.86639
532	2.65	-512.12732	123.7887	-572.19299	-558.51477	134.1899	-540.23322	-341.12006	509.36197	-384.83414	-449.90799	492.81042	-357.09091	-332.91006	966.78003	-532.7439	-672.7301	1018.5706	-439.93933	-541.27081	578.44104	-245.14961	-650.51428	607.44867	-232.31908	-681.60541	180.91348	-391.93265	-776.97791	173.88286	-340.8894
533	2.655	-512.36597	123.16936	-572.36957	-558.76007	133.5661	-540.47784	-341.24011	508.58389	-384.45773	-449.88074	491.99115	-357.26767	-332.73508	966.0614	-531.08386	-677.7774	1018.0564	-443.80933	-546.05341	571.14954	-255.72849	-655.13068	600.4494	-243.98741	-682.73511	173.97009	-403.36774	-780.36572	165.85728	-354.39786
534	2.66	-512.5473	122.58366	-572.58563	-559.00543	133.00786	-540.76465	-341.83228	507.78967	-384.04199	-450.29858	491.27066	-357.09283	-332.38834	965.47711	-529.63733	-679.55157	1018.2462	-448.4288	-550.58453	564.2666	-266.79407	-659.64105	593.99359	-255.6434	-683.78284	165.72472	-412.3569	-782.5155	157.68391	-367.65341
535	2.665	-512.69983	121.99981	-572.78015	-559.25531	132.48132	-540.91266	-342.20813	507.04514	-383.74472	-451.23575	490.50751	-357.30023	-332.34506	965.06396	-528.11005	-677.56262	1012.2572	-448.23734	-554.87408	557.9162	-278.58447	-663.94928	588.28674	-267.24289	-684.07111	158.45024	-420.45621	-784.18353	149.7187	-378.58508
536	2.67	-512.87238	121.51133	-572.97052	-559.46033	132.0114	-541.12189	-342.67993	506.48325	-383.42184	-451.26987	489.85208	-358.0173	-332.70175	964.75623	-526.32758	-677.58905	1010.5357	-450.40643	-559.20721	552.36676	-290.34497	-668.06256	583.11835	-278.92505	-684.38324	151.32681	-426.72031	-785.60095	142.64577	-387.53253
537	2.675	-513.15173	121.12273	-573.04077	-559.83893	131.57959	-541.2124	-343.11826	506.04434	-383.02414	-452.10999	489.18503	-358.05673	-332.59924	964.52203	-524.90454	-677.78296	1009.9377	-453.35858	-563.40558	547.55127	-302.38635	-672.16064	578.8374	-290.50562	-684.18671	144.18088	-430.60239	-786.67377	135.45779	-394.67627
538	2.68	-513.51642	120.8791	-573.08063	-560.35577	130.96205	-541.14056	-343.70901	505.62244	-382.81876	-452.62311	489.08371	-358.0256	-332.50049	964.33008	-523.4696	-679.73822	1008.0107	-456.04099	-567.51202	543.71008	-314.18549	-676.94647	574.82233	-302.5788	-684.21271	137.88751	-432.7424	-787.20184	129.0728	-400.2933
539	2.685	-514.04248	120.63668	-573.0434	-560.96924	130.96501	-541.34058	-344.53564	505.1669	-382.71045	-453.40308	488.84048	-358.15469	-332.30304	964.22742	-522.10986	-679.65906	1008.0644	-459.54269	-571.37457	540.76691	-325.20044	-681.36847	571.95245	-314.15936	-683.9657	132.21416	-435.4736	-787.10999	123.27037	-404.9194
540	2.69	-514.68317	120.468	-572.89362	-561.56848	130.75613	-541.22925	-345.44507	505.14459	-382.60593	-454.25479	488.81992	-358.34528	-332.17093	964.23712	-520.677	-680.72491	1008.0595	-463.10107	-575.09888	538.85938	-335.8634	-686.49969	569.77136	-326.12494	-683.50732	127.93526	-438.37799	-786.3761	121.8944	-403.0394
541	2.695	-515.26526	120.45341	-572.81403	-562.17712	130.71242	-541.133	-346.40732	505.19968	-382.59885	-455.69156	489.35721	-357.63376	-332.01956	964.34857	-519.25323	-681.05615	1008.1164	-466.49506	-578.6427	538.02124	-345.20444	-691.67249	568.41486	-337.48914	-682.64056	125.00217	-441.07379	-786.16205	116.35909	-411.14105
542	2.7	-515.92651	120.50629	-572.62518	-562.89325	130.45401	-540.57434	-347.07022	505.75626	-382.7178	-456.77438	489.40646	-358.21262	-331.92389	964.88397	-517.81342	-681.40991	1009.0802	-470.32593	-582.11469	538.04175	-353.07996	-695.9704	568.17047	-347.79037	-681.60089	122.76957	-443.20081	-784.9516	114.02931	-413.02255
543	2.705	-516.72955	120.58153	-572.44489	-563.42419	130.63921	-540.65222	-348.40158	505.99921	-383.02014	-457.27155	489.82513	-359.46295	-331.63992	965.24823	-516.34833	-681.9314	1010.021	-474.6279	-585.63806	538.50836	-359.94736	-699.66956	567.84399	-357.69928	-680.67755	121.12688	-444.60242	-783.80994	112.51595	-414.66678
544	2.71	-517.28577	120.81014	-572.35675	-563.97839	130.74077	-540.40601	-349.22919	506.6489	-383.36719	-458.6376	490.86826	-359.49988	-331.32336	965.92462	-514.8009	-682.44055	1010.9601	-479.17831	-589.29749	539.39764	-366.70193	-702.83325	568.21277	-366.4848	-679.88495	120.04761	-445.68307	-782.62158	111.22449	-415.84259
545	2.715	-517.84839	121.03428	-572.16724	-564.35638	130.80585	-540.16174	-350.77185	507.31934	-383.8374	-460.39658	491.57019	-359.92517	-331.16623	967.07697	-513.21979	-682.68713	1012.2133	-483.89816	-592.60858	540.83447	-371.91064	-705.65509	567.95789	-375.65469	-679.49774	119.33164	-446.4256	-782.34753	110.73755	-416.42139
546	2.72	-518.32471	121.19299	-571.95245	-564.95959	131.06464	-540.09607	-351.79837	508.44687	-384.22787	-461.69061	492.44913	-361.00867	-331.08365	967.95068	-511.6362	-683.09753	1012.9582	-488.88824	-595.79877	542.41876	-376.94281	-708.82574	568.56763	-383.77457	-679.46796	119.08435	-447.15674	-782.26007	110.54311	-417.1004
547	2.725	-518.59009	121.51098	-571.95789	-565.36487	131.31773	-540.02289	-353.60388	509.67426	-384.83749	-463.23633	493.52017	-362.19379	-331.05972	969.22778	-510.02676	-683.2583	1014.5246	-493.78714	-598.80475	543.98206	-382.00705	-711.69415	569.22852	-391.98877	-679.73804	119.22052	-447.92523	-782.4892	110.66024	-417.60159
548	2.73	-518.80902	121.81264	-571.95544	-565.44946	131.48456	-539.95465	-354.69635	510.75726	-385.45514	-464.10361	494.53799	-364.35019	-331.0976	970.48322	-508.37164	-683.35938	1015.738	-498.97086	-601.5993	545.33386	-387.01059	-714.42871	570.06757	-400.23328	-680.30695	119.59519	-448.70728	-783.00208	111.05155	-418.5043
549	2.735	-518.87604	122.07674	-571.9184	-565.49158	131.64493	-540.11108	-356.50842	512.59259	-385.98193	-465.72162	495.84018	-365.92868	-331.22699	971.88745	-506.69543	-683.46338	1017.0437	-504.2345	-604.18652	546.40363	-391.86566	-717.26642	571.01447	-408.03885	-680.96045	120.31767	-449.6131	-783.78943	111.65947	-419.63544
550	2.74	-518.6582	122.32064	-572.07086	-565.4657	131.81305	-540.35327	-357.71738	514.02789	-386.78751	-467.98843	497.66089	-366.47083	-331.42581	973.43787	-505.06293	-683.50153	1018.4046	-509.31381	-606.63763	547.28601	-396.42145	-719.71704	571.92389	-415.68954	-681.55695	121.24763	-450.64185	-784.50397	112.3733	-420.92044
551	2.745	-518.44409	122.5087	-572.27588	-565.31799	132.03265	-540.67621	-359.28067	515.42328	-387.73959	-469.75491	499.02954	-368.38553	-331.68594	974.97101	-503.39502	-683.49878	1019.6362	-514.50635	-609.0061	548.17157	-400.39392	-722.12256	572.89215	-422.36673	-682.41644	122.24018	-452.13486	-785.42279	113.2208	-422.93192
